<?xml version="1.0" encoding="utf-8"?>
<!-- Generator: Adobe Illustrator 19.2.0, SVG Export Plug-In . SVG Version: 6.00 Build 0)  -->
<svg version="1.1" id="Capa_1" xmlns="http://www.w3.org/2000/svg" xmlns:xlink="http://www.w3.org/1999/xlink" x="0px" y="0px"
	 viewBox="0 0 138.5 115.8" style="enable-background:new 0 0 138.5 115.8;" xml:space="preserve">
<style type="text/css">
	.st0{fill:#FFFFFF;}
</style>
<g>
	<path class="st0" d="M131.5,23.7l-99.6,0L27.7,9.3c-0.6-2.1-2.3-3.8-4.5-4.4L8.6,1C8.1,0.8,7.5,0.7,6.9,0.7c-2.9,0-5.5,2-6.2,4.8
		c-0.4,1.7-0.2,3.4,0.6,4.9c0.9,1.5,2.2,2.6,3.9,3l11.1,3l22.6,81.4c-3.2,1.6-5.3,4.9-5.3,8.5c0,5.2,4.3,9.5,9.5,9.5
		s9.5-4.3,9.5-9.5c0-0.1,0-0.2,0-0.4h45.9c0,0.1,0,0.2,0,0.4c0,5.2,4.3,9.5,9.5,9.5s9.5-4.3,9.5-9.5c0-4.8-3.7-8.9-8.4-9.4
		c-11.4-1.8-58-4.1-58-4.1l-1.5-6h58.1c3,0,5.6-2,6.4-4.9l12.6-44.3h4.6c3.9,0,7-3.1,7-7C138.5,26.8,135.3,23.7,131.5,23.7z
		 M57.4,72H46.5c-0.3,0-0.7,0.1-0.9-0.6c-0.3-0.9-0.6-2.1-0.6-2.1l-8.5-30.1c0-0.1,0-0.3,0.1-0.4c0.1-0.1,0.2-0.2,0.4-0.2h13.2
		c0.2,0,0.4,0.2,0.5,0.4l7.2,32.3l0,0.1c0,0,0,0.1,0,0.1C57.9,71.8,57.7,72,57.4,72z M85.2,39.1l-5.9,32.5c-0.1,0.2-0.2,0.4-0.5,0.4
		h-8.2c-0.2,0-0.4-0.2-0.5-0.4l-5.9-32.5c0-0.1,0-0.3,0.1-0.4c0.1-0.1,0.2-0.2,0.4-0.2h20c0.1,0,0.3,0.1,0.4,0.2
		C85.2,38.8,85.3,39,85.2,39.1z M113.1,39.1l-9.2,32.5c-0.1,0.2-0.3,0.4-0.5,0.4H92.1c-0.1,0-0.3-0.1-0.4-0.2
		c-0.1-0.1-0.1-0.3-0.1-0.4l7.3-32.5c0-0.2,0.3-0.4,0.5-0.4h13.2c0.2,0,0.3,0.1,0.4,0.2C113.1,38.8,113.1,39,113.1,39.1z"/>
</g>
</svg>
